<svg xmlns="http://www.w3.org/2000/svg" viewBox="58 128 284 290"><defs><clipPath id="bc-s8"><path d="M280.00 292.00 L280.06 296.61 L279.90 301.20 L279.52 305.78 L278.91 310.32 L278.08 314.81 L277.02 319.23 L275.74 323.58 L274.24 327.85 L272.52 332.01 L270.60 336.07 L268.48 340.00 L266.15 343.80 L263.64 347.47 L260.94 350.98 L258.07 354.33 L255.01 357.51 L251.80 360.50 L248.42 363.30 L244.90 365.89 L241.24 368.27 L237.46 370.43 L233.57 372.36 L229.57 374.07 L225.50 375.54 L221.35 376.79 L217.15 377.81 L212.90 378.61 L208.62 379.18 L204.32 379.54 L200.00 379.67 L195.68 379.59 L191.37 379.28 L187.08 378.74 L182.82 377.97 L178.60 376.97 L174.44 375.73 L170.36 374.25 L166.36 372.53 L162.47 370.58 L158.69 368.39 L155.04 365.98 L151.54 363.35 L148.18 360.53 L144.98 357.51 L141.95 354.31 L139.09 350.95 L136.41 347.42 L133.91 343.76 L131.59 339.95 L129.47 336.02 L127.54 331.98 L125.82 327.82 L124.31 323.56 L123.02 319.22 L121.95 314.80 L121.11 310.31 L120.49 305.78 L120.10 301.20 L119.94 296.61 L120.00 292.00 L120.28 287.40 L120.78 282.81 L121.49 278.25 L122.41 273.73 L123.53 269.25 L124.85 264.85 L126.36 260.51 L128.07 256.26 L129.96 252.11 L132.03 248.07 L134.28 244.14 L136.71 240.35 L139.29 236.71 L142.04 233.21 L144.92 229.88 L147.95 226.71 L151.10 223.72 L154.37 220.91 L157.76 218.28 L161.24 215.85 L164.82 213.61 L168.49 211.58 L172.24 209.76 L176.06 208.16 L179.94 206.79 L183.89 205.66 L187.87 204.77 L191.90 204.14 L195.94 203.78 L200.00 203.67 L204.05 203.83 L208.09 204.24 L212.11 204.91 L216.08 205.82 L220.01 206.97 L223.89 208.35 L227.70 209.94 L231.44 211.75 L235.11 213.76 L238.70 215.97 L242.19 218.37 L245.59 220.97 L248.88 223.75 L252.05 226.72 L255.09 229.86 L258.00 233.18 L260.75 236.66 L263.35 240.31 L265.78 244.10 L268.03 248.02 L270.10 252.07 L271.99 256.23 L273.69 260.49 L275.19 264.83 L276.50 269.25 L277.61 273.72 L278.52 278.24 L279.22 282.81 L279.72 287.40 L280.00 292.00Z"/></clipPath><filter id="glow-s8" x="-50%" y="-50%" width="200%" height="200%"><feGaussianBlur stdDeviation="8.0"/></filter><filter id="paper-s8"><feTurbulence type="fractalNoise" baseFrequency=".9" numOctaves="2" seed="8"/><feColorMatrix values="0 0 0 0 .16  0 0 0 0 .22  0 0 0 0 .17  0 0 0 .55 0"/></filter><radialGradient id="core-s8"><stop offset="0" stop-color="#EEE7D4" stop-opacity="0.77"/><stop offset=".6" stop-color="#EEE7D4" stop-opacity="0.43"/><stop offset="1" stop-color="#EEE7D4" stop-opacity="0"/></radialGradient><radialGradient id="aura-s8"><stop offset="0" stop-color="#F4ECD8" stop-opacity=".95"/><stop offset=".55" stop-color="#DCEBCF" stop-opacity=".55"/><stop offset="1" stop-color="#DCEBCF" stop-opacity="0"/></radialGradient><clipPath id="s8e0"><ellipse cx="165" cy="264.6" rx="7.1" ry="11.5"/></clipPath><clipPath id="s8e1"><ellipse cx="209" cy="264.6" rx="8.4" ry="11.5"/></clipPath></defs><ellipse cx="196" cy="415" rx="76.0" ry="9" fill="#2A4535" opacity="0.09"/><circle cx="302.5" cy="381.3" r="3.4" fill="#C9D8BF" stroke="#91A58F" stroke-width=".8" opacity=".9"/><circle cx="160.9" cy="171.1" r="2.2" fill="#E9D9AE" stroke="#A6A584" stroke-width=".8" opacity=".9"/><circle cx="86.7" cy="231.7" r="2.2" fill="#B5CDA8" stroke="#849D80" stroke-width=".8" opacity=".9"/><circle cx="275.7" cy="191.8" r="2.1" fill="#C9D8BF" stroke="#91A58F" stroke-width=".8" opacity=".9"/><path d="M172.0 372.0 Q164.0 391.5 156.0 407.0" fill="none" stroke="#334E3D" stroke-width="17" stroke-linecap="round"/><path d="M172.0 372.0 Q164.0 391.5 156.0 407.0" fill="none" stroke="#5B7C64" stroke-width="13" stroke-linecap="round"/><ellipse cx="152.0" cy="409.0" rx="12" ry="6.5" fill="#5B7C64" stroke="#334E3D" stroke-width="2" transform="rotate(-6 152.0 409.0)"/><path d="M224.0 372.0 Q229.0 389.0 234.0 402.0" fill="none" stroke="#334E3D" stroke-width="17" stroke-linecap="round"/><path d="M224.0 372.0 Q229.0 389.0 234.0 402.0" fill="none" stroke="#5B7C64" stroke-width="13" stroke-linecap="round"/><ellipse cx="230.0" cy="404.0" rx="12" ry="6.5" fill="#5B7C64" stroke="#334E3D" stroke-width="2" transform="rotate(14 230.0 404.0)"/><g transform="rotate(-4 200 380)"><path d="M128.0 302.6 Q115.1 313.6 111.2 327.4" fill="none" stroke="#334E3D" stroke-width="15" stroke-linecap="round"/><path d="M128.0 302.6 Q115.1 313.6 111.2 327.4" fill="none" stroke="#5B7C64" stroke-width="11.5" stroke-linecap="round"/><path d="M280.00 292.00 L280.06 296.61 L279.90 301.20 L279.52 305.78 L278.91 310.32 L278.08 314.81 L277.02 319.23 L275.74 323.58 L274.24 327.85 L272.52 332.01 L270.60 336.07 L268.48 340.00 L266.15 343.80 L263.64 347.47 L260.94 350.98 L258.07 354.33 L255.01 357.51 L251.80 360.50 L248.42 363.30 L244.90 365.89 L241.24 368.27 L237.46 370.43 L233.57 372.36 L229.57 374.07 L225.50 375.54 L221.35 376.79 L217.15 377.81 L212.90 378.61 L208.62 379.18 L204.32 379.54 L200.00 379.67 L195.68 379.59 L191.37 379.28 L187.08 378.74 L182.82 377.97 L178.60 376.97 L174.44 375.73 L170.36 374.25 L166.36 372.53 L162.47 370.58 L158.69 368.39 L155.04 365.98 L151.54 363.35 L148.18 360.53 L144.98 357.51 L141.95 354.31 L139.09 350.95 L136.41 347.42 L133.91 343.76 L131.59 339.95 L129.47 336.02 L127.54 331.98 L125.82 327.82 L124.31 323.56 L123.02 319.22 L121.95 314.80 L121.11 310.31 L120.49 305.78 L120.10 301.20 L119.94 296.61 L120.00 292.00 L120.28 287.40 L120.78 282.81 L121.49 278.25 L122.41 273.73 L123.53 269.25 L124.85 264.85 L126.36 260.51 L128.07 256.26 L129.96 252.11 L132.03 248.07 L134.28 244.14 L136.71 240.35 L139.29 236.71 L142.04 233.21 L144.92 229.88 L147.95 226.71 L151.10 223.72 L154.37 220.91 L157.76 218.28 L161.24 215.85 L164.82 213.61 L168.49 211.58 L172.24 209.76 L176.06 208.16 L179.94 206.79 L183.89 205.66 L187.87 204.77 L191.90 204.14 L195.94 203.78 L200.00 203.67 L204.05 203.83 L208.09 204.24 L212.11 204.91 L216.08 205.82 L220.01 206.97 L223.89 208.35 L227.70 209.94 L231.44 211.75 L235.11 213.76 L238.70 215.97 L242.19 218.37 L245.59 220.97 L248.88 223.75 L252.05 226.72 L255.09 229.86 L258.00 233.18 L260.75 236.66 L263.35 240.31 L265.78 244.10 L268.03 248.02 L270.10 252.07 L271.99 256.23 L273.69 260.49 L275.19 264.83 L276.50 269.25 L277.61 273.72 L278.52 278.24 L279.22 282.81 L279.72 287.40 L280.00 292.00Z" fill="#72947B" stroke="#334E3D" stroke-width="2.4" stroke-linejoin="round"/><g clip-path="url(#bc-s8)"><ellipse cx="244.0" cy="331.6" rx="72.0" ry="83.6" fill="#2A4535" opacity=".13"/><ellipse cx="166.4" cy="243.6" rx="44.0" ry="33.44" fill="#F4ECD8" opacity="0.19"/><circle cx="192" cy="318.4" r="50.7" fill="url(#core-s8)"/><rect x="110.0" y="194" width="180.0" height="196" filter="url(#paper-s8)" opacity=".22"/></g><path d="M192.00 289.00 L194.05 289.10 L196.08 289.35 L198.09 289.76 L200.05 290.33 L201.96 291.03 L203.81 291.88 L205.58 292.86 L207.27 293.96 L208.87 295.18 L210.38 296.49 L211.79 297.91 L213.10 299.40 L214.31 300.97 L215.42 302.60 L216.42 304.30 L217.33 306.05 L218.12 307.85 L218.82 309.69 L219.41 311.57 L219.89 313.48 L220.26 315.43 L220.51 317.40 L220.64 319.40 L220.64 321.41 L220.51 323.43 L220.24 325.44 L219.82 327.44 L219.26 329.41 L218.55 331.35 L217.68 333.23 L216.67 335.04 L215.51 336.77 L214.21 338.40 L212.78 339.92 L211.23 341.32 L209.57 342.59 L207.82 343.71 L205.98 344.69 L204.07 345.51 L202.11 346.18 L200.11 346.69 L198.09 347.06 L196.06 347.28 L194.02 347.35 L192.00 347.28 L189.99 347.09 L188.01 346.76 L186.07 346.32 L184.16 345.76 L182.29 345.08 L180.47 344.30 L178.70 343.42 L176.99 342.43 L175.34 341.34 L173.75 340.14 L172.25 338.85 L170.82 337.47 L169.49 335.99 L168.26 334.42 L167.13 332.76 L166.12 331.02 L165.23 329.21 L164.48 327.34 L163.87 325.41 L163.40 323.44 L163.07 321.44 L162.90 319.42 L162.88 317.38 L163.01 315.35 L163.29 313.34 L163.71 311.35 L164.27 309.39 L164.97 307.48 L165.81 305.62 L166.76 303.83 L167.84 302.10 L169.03 300.46 L170.33 298.89 L171.73 297.41 L173.23 296.03 L174.82 294.76 L176.50 293.59 L178.25 292.54 L180.07 291.61 L181.96 290.82 L183.90 290.16 L185.89 289.64 L187.91 289.27 L189.95 289.06 L192.00 289.00" fill="none" stroke="#E4B45C" stroke-width="7.5" opacity="0.21" filter="url(#glow-s8)" /><path d="M192.00 289.00 L194.05 289.10 L196.08 289.35 L198.09 289.76 L200.05 290.33 L201.96 291.03 L203.81 291.88 L205.58 292.86 L207.27 293.96 L208.87 295.18 L210.38 296.49 L211.79 297.91 L213.10 299.40 L214.31 300.97 L215.42 302.60 L216.42 304.30 L217.33 306.05 L218.12 307.85 L218.82 309.69 L219.41 311.57 L219.89 313.48 L220.26 315.43 L220.51 317.40 L220.64 319.40 L220.64 321.41 L220.51 323.43 L220.24 325.44 L219.82 327.44 L219.26 329.41 L218.55 331.35 L217.68 333.23 L216.67 335.04 L215.51 336.77 L214.21 338.40 L212.78 339.92 L211.23 341.32 L209.57 342.59 L207.82 343.71 L205.98 344.69 L204.07 345.51 L202.11 346.18 L200.11 346.69 L198.09 347.06 L196.06 347.28 L194.02 347.35 L192.00 347.28 L189.99 347.09 L188.01 346.76 L186.07 346.32 L184.16 345.76 L182.29 345.08 L180.47 344.30 L178.70 343.42 L176.99 342.43 L175.34 341.34 L173.75 340.14 L172.25 338.85 L170.82 337.47 L169.49 335.99 L168.26 334.42 L167.13 332.76 L166.12 331.02 L165.23 329.21 L164.48 327.34 L163.87 325.41 L163.40 323.44 L163.07 321.44 L162.90 319.42 L162.88 317.38 L163.01 315.35 L163.29 313.34 L163.71 311.35 L164.27 309.39 L164.97 307.48 L165.81 305.62 L166.76 303.83 L167.84 302.10 L169.03 300.46 L170.33 298.89 L171.73 297.41 L173.23 296.03 L174.82 294.76 L176.50 293.59 L178.25 292.54 L180.07 291.61 L181.96 290.82 L183.90 290.16 L185.89 289.64 L187.91 289.27 L189.95 289.06 L192.00 289.00" fill="none" stroke="#DFB86B" stroke-width="2.6" stroke-linecap="round" opacity="0.97" /><path d="M192.00 298.28 L193.40 298.41 L194.78 298.63 L196.13 298.95 L197.46 299.34 L198.76 299.82 L200.02 300.38 L201.25 301.01 L202.43 301.71 L203.56 302.49 L204.64 303.33 L205.67 304.25 L206.64 305.22 L207.54 306.26 L208.37 307.36 L209.13 308.51 L209.80 309.72 L210.39 310.97 L210.89 312.26 L211.30 313.59 L211.61 314.94 L211.82 316.32 L211.92 317.70 L211.93 319.10 L211.84 320.49 L211.65 321.86 L211.36 323.23 L210.97 324.56 L210.50 325.87 L209.93 327.15 L209.28 328.38 L208.55 329.57 L207.75 330.70 L206.87 331.79 L205.91 332.81 L204.90 333.77 L203.82 334.66 L202.67 335.48 L201.48 336.22 L200.23 336.88 L198.94 337.46 L197.60 337.93 L196.23 338.31 L194.84 338.59 L193.42 338.76 L192.00 338.82 L190.58 338.77 L189.16 338.61 L187.76 338.33 L186.39 337.95 L185.06 337.46 L183.78 336.87 L182.54 336.19 L181.37 335.41 L180.26 334.56 L179.22 333.63 L178.25 332.63 L177.36 331.58 L176.54 330.48 L175.80 329.33 L175.13 328.14 L174.54 326.92 L174.02 325.66 L173.57 324.39 L173.20 323.09 L172.90 321.77 L172.67 320.43 L172.52 319.08 L172.45 317.72 L172.47 316.35 L172.56 314.97 L172.75 313.60 L173.03 312.24 L173.41 310.89 L173.88 309.56 L174.46 308.27 L175.13 307.02 L175.90 305.82 L176.77 304.69 L177.73 303.62 L178.77 302.64 L179.90 301.74 L181.09 300.94 L182.34 300.23 L183.65 299.64 L184.99 299.14 L186.37 298.76 L187.77 298.48 L189.18 298.31 L190.59 298.25 L192.00 298.28" fill="none" stroke="#E4B45C" stroke-width="7.5" opacity="0.21" filter="url(#glow-s8)" /><path d="M192.00 298.28 L193.40 298.41 L194.78 298.63 L196.13 298.95 L197.46 299.34 L198.76 299.82 L200.02 300.38 L201.25 301.01 L202.43 301.71 L203.56 302.49 L204.64 303.33 L205.67 304.25 L206.64 305.22 L207.54 306.26 L208.37 307.36 L209.13 308.51 L209.80 309.72 L210.39 310.97 L210.89 312.26 L211.30 313.59 L211.61 314.94 L211.82 316.32 L211.92 317.70 L211.93 319.10 L211.84 320.49 L211.65 321.86 L211.36 323.23 L210.97 324.56 L210.50 325.87 L209.93 327.15 L209.28 328.38 L208.55 329.57 L207.75 330.70 L206.87 331.79 L205.91 332.81 L204.90 333.77 L203.82 334.66 L202.67 335.48 L201.48 336.22 L200.23 336.88 L198.94 337.46 L197.60 337.93 L196.23 338.31 L194.84 338.59 L193.42 338.76 L192.00 338.82 L190.58 338.77 L189.16 338.61 L187.76 338.33 L186.39 337.95 L185.06 337.46 L183.78 336.87 L182.54 336.19 L181.37 335.41 L180.26 334.56 L179.22 333.63 L178.25 332.63 L177.36 331.58 L176.54 330.48 L175.80 329.33 L175.13 328.14 L174.54 326.92 L174.02 325.66 L173.57 324.39 L173.20 323.09 L172.90 321.77 L172.67 320.43 L172.52 319.08 L172.45 317.72 L172.47 316.35 L172.56 314.97 L172.75 313.60 L173.03 312.24 L173.41 310.89 L173.88 309.56 L174.46 308.27 L175.13 307.02 L175.90 305.82 L176.77 304.69 L177.73 303.62 L178.77 302.64 L179.90 301.74 L181.09 300.94 L182.34 300.23 L183.65 299.64 L184.99 299.14 L186.37 298.76 L187.77 298.48 L189.18 298.31 L190.59 298.25 L192.00 298.28" fill="none" stroke="#DFB86B" stroke-width="2.6" stroke-linecap="round" opacity="0.97" /><path d="M192.00 306.56 L192.83 306.57 L193.65 306.65 L194.47 306.79 L195.27 307.00 L196.05 307.28 L196.80 307.62 L197.52 308.01 L198.21 308.46 L198.86 308.96 L199.46 309.51 L200.02 310.09 L200.54 310.71 L201.00 311.37 L201.43 312.04 L201.80 312.74 L202.13 313.46 L202.42 314.19 L202.66 314.94 L202.86 315.69 L203.01 316.46 L203.12 317.23 L203.18 318.01 L203.20 318.79 L203.17 319.57 L203.09 320.36 L202.96 321.13 L202.78 321.90 L202.55 322.66 L202.27 323.41 L201.93 324.13 L201.54 324.83 L201.09 325.50 L200.60 326.14 L200.06 326.74 L199.47 327.30 L198.84 327.81 L198.17 328.27 L197.47 328.69 L196.74 329.04 L195.98 329.34 L195.21 329.59 L194.42 329.77 L193.62 329.90 L192.81 329.98 L192.00 330.00 L191.19 329.96 L190.39 329.86 L189.59 329.72 L188.81 329.52 L188.04 329.27 L187.30 328.97 L186.57 328.61 L185.87 328.21 L185.20 327.76 L184.56 327.27 L183.96 326.73 L183.40 326.15 L182.88 325.53 L182.41 324.87 L181.99 324.18 L181.62 323.46 L181.31 322.72 L181.06 321.96 L180.86 321.18 L180.72 320.39 L180.64 319.59 L180.62 318.80 L180.65 318.00 L180.74 317.22 L180.88 316.44 L181.07 315.67 L181.30 314.92 L181.59 314.19 L181.91 313.48 L182.28 312.79 L182.69 312.12 L183.14 311.47 L183.62 310.86 L184.14 310.27 L184.71 309.71 L185.30 309.18 L185.93 308.69 L186.60 308.24 L187.30 307.84 L188.03 307.49 L188.78 307.18 L189.56 306.94 L190.36 306.75 L191.18 306.62 L192.00 306.56" fill="none" stroke="#E4B45C" stroke-width="7.5" opacity="0.21" filter="url(#glow-s8)" /><path d="M192.00 306.56 L192.83 306.57 L193.65 306.65 L194.47 306.79 L195.27 307.00 L196.05 307.28 L196.80 307.62 L197.52 308.01 L198.21 308.46 L198.86 308.96 L199.46 309.51 L200.02 310.09 L200.54 310.71 L201.00 311.37 L201.43 312.04 L201.80 312.74 L202.13 313.46 L202.42 314.19 L202.66 314.94 L202.86 315.69 L203.01 316.46 L203.12 317.23 L203.18 318.01 L203.20 318.79 L203.17 319.57 L203.09 320.36 L202.96 321.13 L202.78 321.90 L202.55 322.66 L202.27 323.41 L201.93 324.13 L201.54 324.83 L201.09 325.50 L200.60 326.14 L200.06 326.74 L199.47 327.30 L198.84 327.81 L198.17 328.27 L197.47 328.69 L196.74 329.04 L195.98 329.34 L195.21 329.59 L194.42 329.77 L193.62 329.90 L192.81 329.98 L192.00 330.00 L191.19 329.96 L190.39 329.86 L189.59 329.72 L188.81 329.52 L188.04 329.27 L187.30 328.97 L186.57 328.61 L185.87 328.21 L185.20 327.76 L184.56 327.27 L183.96 326.73 L183.40 326.15 L182.88 325.53 L182.41 324.87 L181.99 324.18 L181.62 323.46 L181.31 322.72 L181.06 321.96 L180.86 321.18 L180.72 320.39 L180.64 319.59 L180.62 318.80 L180.65 318.00 L180.74 317.22 L180.88 316.44 L181.07 315.67 L181.30 314.92 L181.59 314.19 L181.91 313.48 L182.28 312.79 L182.69 312.12 L183.14 311.47 L183.62 310.86 L184.14 310.27 L184.71 309.71 L185.30 309.18 L185.93 308.69 L186.60 308.24 L187.30 307.84 L188.03 307.49 L188.78 307.18 L189.56 306.94 L190.36 306.75 L191.18 306.62 L192.00 306.56" fill="none" stroke="#DFB86B" stroke-width="2.4" stroke-linecap="round" opacity="0.97" /><circle cx="192" cy="318.4" r="10.8" fill="#E4B45C" opacity="0.38" filter="url(#glow-s8)"/><circle cx="192" cy="318.4" r="4.9" fill="#DDB466" opacity="0.91"/><g clip-path="url(#s8e0)"><ellipse cx="165" cy="264.6" rx="7.1" ry="11.5" fill="#2A4535"/><circle cx="167.4" cy="260.4" r="2.0" fill="#F4ECD8"/></g><g clip-path="url(#s8e1)"><ellipse cx="209" cy="264.6" rx="8.4" ry="11.5" fill="#2A4535"/><circle cx="211.8" cy="260.4" r="2.4" fill="#F4ECD8"/></g><path d="M180 285.2 Q187 287.3 194 285.2" fill="none" stroke="#2A4535" stroke-width="2.1" stroke-linecap="round" opacity=".85"/><path d="M194 210 Q192 192.8 191.5 182.1" fill="none" stroke="#334E3D" stroke-width="5.5" stroke-linecap="round"/><path d="M194 210 Q192 192.8 191.5 182.1" fill="none" stroke="#7EA97A" stroke-width="3" stroke-linecap="round"/><g transform="translate(191.49 182.13) rotate(215.2)"><path d="M0 0 C10.2 -14.1 29.2 -12.8 40.6 0 C29.2 10.7 10.2 12.1 0 0Z" fill="#7EA97A" stroke="#334E3D" stroke-width="2" stroke-linejoin="round"/><path d="M3.2 0 Q20.3 -1.6 34.9 0.0" fill="none" stroke="#334E3D" stroke-width="1.3" stroke-linecap="round" opacity=".55"/></g><g transform="translate(191.49 182.13) rotate(-42.8)"><path d="M0 0 C10.2 -14.1 29.2 -12.8 40.6 0 C29.2 10.7 10.2 12.1 0 0Z" fill="#7EA97A" stroke="#334E3D" stroke-width="2" stroke-linejoin="round"/><path d="M3.2 0 Q20.3 -1.6 34.9 0.0" fill="none" stroke="#334E3D" stroke-width="1.3" stroke-linecap="round" opacity=".55"/></g><path d="M268.8 302.6 Q265.6 316.6 253.9 333.1" fill="none" stroke="#334E3D" stroke-width="15" stroke-linecap="round"/><path d="M268.8 302.6 Q265.6 316.6 253.9 333.1" fill="none" stroke="#5B7C64" stroke-width="11.5" stroke-linecap="round"/></g></svg>